<svg xmlns="http://www.w3.org/2000/svg" viewBox="0 0 303.6 258"><defs><style>.a{fill:none;}.a,.c{stroke:#3d4752;stroke-miterlimit:10;stroke-width:3px;}.b{fill:#3d4752;}.c{fill:#fff;}</style></defs><title>featured</title><line class="a" x1="270.1" y1="138.06" x2="270.1" y2="207.14"/><polyline class="a" points="187.31 230.18 212.73 230.18 238.16 230.18"/><polygon class="b" points="119.85 68.99 116.92 69.93 109.63 72.32 109.63 65.66 116.92 68.04 119.85 68.99"/><polygon class="b" points="36.55 170.23 43.21 170.23 40.83 177.52 39.88 180.45 38.94 177.52 36.55 170.23"/><path class="a" d="M193.69,69h18.45a3.61,3.61,0,0,1,3.6,3.6V99.27a3.61,3.61,0,0,0,3.6,3.6h18.5"/><path class="a" d="M143.21,150.89V125.64a3.61,3.61,0,0,0-3.6-3.6H72.19"/><path class="c" d="M144.11,151.24h-1.8v-0.36h1.8v0.36Zm0,1h-1.8v-1h1.8v1Z"/><path class="a" d="M166.92,150.89V125.51a3.61,3.61,0,0,1,3.6-3.6h67.32"/><path class="c" d="M167.82,151.24H166v-0.36h1.8v0.36Zm0,1H166v-1h1.8v1Z"/><line class="a" x1="155.31" y1="170.96" x2="155.31" y2="203.85"/><rect class="c" x="154.41" y="169.61" width="1.8" height="1.35"/><rect class="c" x="5.89" y="1.5" width="60.75" height="43.74" rx="1.8" ry="1.8"/><path class="c" d="M11.08,8.6a1.81,1.81,0,0,1,1.8-1.8H70a1.81,1.81,0,0,1,1.8,1.8V48.74a1.78,1.78,0,0,1-1.8,1.8H12.89a1.78,1.78,0,0,1-1.8-1.8V8.6Z"/><path class="c" d="M66.57,85.41a5.27,5.27,0,0,1,5.26,5.27v42.12a5.24,5.24,0,0,1-5.26,5.27H13.15a5.24,5.24,0,0,1-5.26-5.27V90.68a5.27,5.27,0,0,1,5.26-5.27H66.57Z"/><line class="a" x1="39.88" y1="50.54" x2="39.88" y2="85.41"/><path class="a" d="M72.19,104.67H91a3.61,3.61,0,0,0,3.6-3.6V72.58a3.61,3.61,0,0,1,3.6-3.6h18.76"/><rect class="c" x="71.83" y="103.77" width="0.36" height="1.8"/><path class="c" d="M193.69,59.13h-75a1.78,1.78,0,0,0-1.8,1.8V77a1.81,1.81,0,0,0,1.8,1.8h75"/><line class="c" x1="132.31" y1="59.13" x2="132.31" y2="78.84"/><path class="c" d="M296.83,85.41a5.27,5.27,0,0,1,5.27,5.27v42.12a5.24,5.24,0,0,1-5.27,5.27H243.42a5.24,5.24,0,0,1-5.26-5.27V90.68a5.27,5.27,0,0,1,5.26-5.27h53.42Z"/><rect class="c" x="236.16" y="1.5" width="60.75" height="43.74" rx="1.8" ry="1.8"/><path class="c" d="M241.35,8.6a1.81,1.81,0,0,1,1.8-1.8H300.3a1.81,1.81,0,0,1,1.8,1.8V48.74a1.78,1.78,0,0,1-1.8,1.8H243.15a1.78,1.78,0,0,1-1.8-1.8V8.6Z"/><line class="a" x1="270.1" y1="50.54" x2="270.1" y2="85.1"/><rect class="c" x="236.16" y="204.14" width="60.75" height="43.78" rx="1.8" ry="1.8"/><path class="c" d="M241.35,211.27a1.78,1.78,0,0,1,1.8-1.8H300.3a1.78,1.78,0,0,1,1.8,1.8v40.14a1.81,1.81,0,0,1-1.8,1.8H243.15a1.81,1.81,0,0,1-1.8-1.8V211.27Z"/><path class="c" d="M193.69,151.24h-75a1.78,1.78,0,0,0-1.8,1.8v16.11a1.81,1.81,0,0,0,1.8,1.8h75"/><line class="c" x1="132.31" y1="151.24" x2="132.31" y2="170.96"/><path class="c" d="M182,203.85a5.3,5.3,0,0,1,5.27,5.26v42.12A5.27,5.27,0,0,1,182,256.5H128.62a5.24,5.24,0,0,1-5.26-5.26V209.11a5.27,5.27,0,0,1,5.26-5.26H182Z"/><line class="a" x1="39.88" y1="138.06" x2="39.88" y2="177.52"/><path class="a" d="M39.88,197.28v29.3a3.61,3.61,0,0,0,3.6,3.6h79.88"/><rect class="c" x="38.98" y="195.93" width="1.8" height="1.35"/><path class="c" d="M78.27,177.52H3.3a1.81,1.81,0,0,0-1.8,1.8v16.15a1.81,1.81,0,0,0,1.8,1.8h75"/><line class="c" x1="16.85" y1="177.52" x2="16.85" y2="197.28"/><polygon class="b" points="151.98 196.56 158.64 196.56 156.25 203.85 154.36 203.85 151.98 196.56"/><polygon class="b" points="116.02 226.85 123.36 229.23 123.36 231.12 116.02 233.51 116.02 226.85"/><polygon class="b" points="266.77 196.85 273.43 196.85 271.05 204.14 269.16 204.14 266.77 196.85"/><polygon class="b" points="269.29 85.41 266.77 77.76 273.43 77.76 270.96 85.41 269.29 85.41"/><polygon class="b" points="230.5 99.54 238.15 102.02 238.15 103.73 230.5 106.2 230.5 99.54"/><polygon class="b" points="228.82 226.85 236.15 229.23 236.15 231.12 228.82 233.51 228.82 226.85"/><polygon class="b" points="187.3 229.23 194.59 226.85 194.59 233.51 187.3 231.12 187.3 229.23"/><polygon class="b" points="79.48 118.71 79.48 125.37 71.83 122.89 71.83 121.18 79.48 118.71"/><polygon class="b" points="43.21 78.12 40.83 85.41 38.94 85.41 36.55 78.12 43.21 78.12"/><polygon class="b" points="230.5 118.58 238.15 121.05 238.15 122.76 230.5 125.23 230.5 118.58"/></svg>